<svg width="16" height="22" fill="none" xmlns="http://www.w3.org/2000/svg"><path fill-rule="evenodd" clip-rule="evenodd" d="M2 0a2 2 0 00-2 2v18a2 2 0 002 2h12a2 2 0 002-2V2a2 2 0 00-2-2H2zm10.5 15.5a1.5 1.5 0 100-3 1.5 1.5 0 000 3zm-3-1.5a1.5 1.5 0 11-3 0 1.5 1.5 0 013 0zm-6 1.5a1.5 1.5 0 100-3 1.5 1.5 0 000 3zm10.5-6a1.5 1.5 0 11-3 0 1.5 1.5 0 013 0zM8 11a1.5 1.5 0 100-3 1.5 1.5 0 000 3zM5 9.5a1.5 1.5 0 11-3 0 1.5 1.5 0 013 0zM12.5 20a1.5 1.5 0 100-3 1.5 1.5 0 000 3zM2 18.5A1.5 1.5 0 013.5 17H8a1.5 1.5 0 010 3H3.5A1.5 1.5 0 012 18.5zM3 2a1 1 0 00-1 1v2a1 1 0 001 1h10a1 1 0 001-1V3a1 1 0 00-1-1H3z" fill="#fff"/></svg>