<svg xmlns="http://www.w3.org/2000/svg" width="22" height="20" fill="none"><path fill-rule="evenodd" clip-rule="evenodd" d="M16.834 5.508l.917-3.816L15.306.377l-3.074 2.655-2.048.06L7.264.61 4.736 2.07l.69 3.769L4.35 7.583.514 8.917l-.083 2.775 3.762 1.115.973 1.685-.916 3.816 2.444 1.315 3.074-2.655 2.048-.06 2.92 2.482 2.528-1.46-.69-3.769 1.076-1.744 3.836-1.334.084-2.775-3.763-1.115-.973-1.685zM10.63 7.857h.74v1.786h1.852v.714h-1.851v1.786h-.741v-1.786H8.778v-.714h1.852V7.857z" fill="#fff"/></svg>