<svg width="49" height="16" viewBox="0 0 49 16" fill="none" xmlns="http://www.w3.org/2000/svg">
<path d="M5.56 4.58C6.20667 4.58 6.8 4.68333 7.34 4.89C7.88667 5.09667 8.35667 5.4 8.75 5.8C9.14333 6.19333 9.45 6.68 9.67 7.26C9.89 7.83333 10 8.49 10 9.23C10 9.41667 9.99 9.57333 9.97 9.7C9.95667 9.82 9.92667 9.91667 9.88 9.99C9.84 10.0567 9.78333 10.1067 9.71 10.14C9.63667 10.1667 9.54333 10.18 9.43 10.18H3.09C3.16333 11.2333 3.44667 12.0067 3.94 12.5C4.43333 12.9933 5.08667 13.24 5.9 13.24C6.3 13.24 6.64333 13.1933 6.93 13.1C7.22333 13.0067 7.47667 12.9033 7.69 12.79C7.91 12.6767 8.1 12.5733 8.26 12.48C8.42667 12.3867 8.58667 12.34 8.74 12.34C8.84 12.34 8.92667 12.36 9 12.4C9.07333 12.44 9.13667 12.4967 9.19 12.57L9.91 13.47C9.63667 13.79 9.33 14.06 8.99 14.28C8.65 14.4933 8.29333 14.6667 7.92 14.8C7.55333 14.9267 7.17667 15.0167 6.79 15.07C6.41 15.1233 6.04 15.15 5.68 15.15C4.96667 15.15 4.30333 15.0333 3.69 14.8C3.07667 14.56 2.54333 14.21 2.09 13.75C1.63667 13.2833 1.28 12.71 1.02 12.03C0.76 11.3433 0.63 10.55 0.63 9.65C0.63 8.95 0.743333 8.29333 0.97 7.68C1.19667 7.06 1.52 6.52333 1.94 6.07C2.36667 5.61 2.88333 5.24667 3.49 4.98C4.10333 4.71333 4.79333 4.58 5.56 4.58ZM5.61 6.35C4.89 6.35 4.32667 6.55333 3.92 6.96C3.51333 7.36667 3.25333 7.94333 3.14 8.69H7.78C7.78 8.37 7.73667 8.07 7.65 7.79C7.56333 7.50333 7.43 7.25333 7.25 7.04C7.07 6.82667 6.84333 6.66 6.57 6.54C6.29667 6.41333 5.97667 6.35 5.61 6.35ZM22.0836 11.59C22.2303 11.59 22.3569 11.6467 22.4636 11.76L23.5236 12.91C22.9369 13.6367 22.2136 14.1933 21.3536 14.58C20.5003 14.9667 19.4736 15.16 18.2736 15.16C17.2003 15.16 16.2336 14.9767 15.3736 14.61C14.5203 14.2433 13.7903 13.7333 13.1836 13.08C12.5769 12.4267 12.1103 11.6467 11.7836 10.74C11.4636 9.83333 11.3036 8.84333 11.3036 7.77C11.3036 6.68333 11.4836 5.69 11.8436 4.79C12.2036 3.88333 12.7103 3.10333 13.3636 2.45C14.0169 1.79667 14.7969 1.29 15.7036 0.929999C16.6169 0.563333 17.6236 0.38 18.7236 0.38C19.7969 0.38 20.7336 0.553333 21.5336 0.899999C22.3403 1.24 23.0303 1.69333 23.6036 2.26L22.7036 3.51C22.6503 3.59 22.5803 3.66 22.4936 3.72C22.4136 3.78 22.3003 3.81 22.1536 3.81C22.0003 3.81 21.8436 3.75 21.6836 3.63C21.5236 3.51 21.3203 3.38 21.0736 3.24C20.8269 3.1 20.5136 2.97 20.1336 2.85C19.7603 2.73 19.2836 2.67 18.7036 2.67C18.0236 2.67 17.3969 2.79 16.8236 3.03C16.2569 3.26333 15.7669 3.6 15.3536 4.04C14.9469 4.48 14.6269 5.01667 14.3936 5.65C14.1669 6.27667 14.0536 6.98333 14.0536 7.77C14.0536 8.58333 14.1669 9.30667 14.3936 9.94C14.6269 10.5733 14.9403 11.1067 15.3336 11.54C15.7269 11.9733 16.1903 12.3067 16.7236 12.54C17.2569 12.7667 17.8303 12.88 18.4436 12.88C18.8103 12.88 19.1403 12.86 19.4336 12.82C19.7336 12.78 20.0069 12.7167 20.2536 12.63C20.5069 12.5433 20.7436 12.4333 20.9636 12.3C21.1903 12.16 21.4136 11.99 21.6336 11.79C21.7003 11.73 21.7703 11.6833 21.8436 11.65C21.9169 11.61 21.9969 11.59 22.0836 11.59ZM38.2716 15H36.1916C35.9582 15 35.7649 14.9433 35.6116 14.83C35.4649 14.71 35.3582 14.5633 35.2916 14.39L34.2116 11.44H28.2216L27.1416 14.39C27.0882 14.5433 26.9816 14.6833 26.8216 14.81C26.6682 14.9367 26.4782 15 26.2516 15H24.1616L29.8416 0.539999H32.5916L38.2716 15ZM28.9116 9.54H33.5216L31.7616 4.73C31.6816 4.51667 31.5916 4.26667 31.4916 3.98C31.3982 3.68667 31.3049 3.37 31.2116 3.03C31.1182 3.37 31.0249 3.68667 30.9316 3.98C30.8449 4.27333 30.7582 4.53 30.6716 4.75L28.9116 9.54ZM48.4859 0.539999V2.75H44.1359V15H41.4459V2.75H37.0759V0.539999H48.4859Z" fill="white"/>
</svg>
