<?xml version="1.0" encoding="utf-8"?>
<!-- Generator: Adobe Illustrator 19.0.0, SVG Export Plug-In . SVG Version: 6.00 Build 0)  -->
<svg version="1.1" id="Layer_1" xmlns="http://www.w3.org/2000/svg" xmlns:xlink="http://www.w3.org/1999/xlink" x="0px" y="0px"
	 viewBox="0 0 316 84" style="enable-background:new 0 0 316 84;" xml:space="preserve">
<style type="text/css">
	.st0{fill:#FFFFFF;}
</style>
<path id="XMLID_37_" class="st0" d="M169.1,28.3l0.1,1.1H153l-0.2-1.1c-2-9.7-8.1-15.4-18.9-15.4c-13,0-21.8,10.8-21.8,28.7
	c0,19.6,9.3,29.7,21.6,29.7c10.6,0,16.7-6.2,18.8-16l0.2-1.1h16.1l-0.1,1.1c-1.8,16.8-14.9,27.7-35.7,27.7c-22.5,0-38-15.4-38-40.5
	c0-25.8,16.8-41.4,39.2-41.4C156.1,1.2,167.4,12.8,169.1,28.3z"/>
<path id="XMLID_39_" class="st0" d="M197.6,58l-8.1,25h-17.2l29.2-82h20.3l28.6,82h-17.6l-8-25H197.6z M201.7,45.6h19l-9.4-29.1
	L201.7,45.6z"/>
<path id="XMLID_42_" class="st0" d="M287.7,15.4v67.7h-16.2V15.4H244V1.1h71.1v14.3H287.7z"/>
<g id="XMLID_1_">
	<g id="XMLID_2_">
		<g id="XMLID_13_">
			<path id="XMLID_17_" class="st0" d="M17,43c0-14.7,11.8-26.6,26.4-26.6c6.4,0,12.3,2.3,16.9,6.1c1.2,0.9,2.4,2,3.5,3.1
				c-6.2-11.3-19.2-18.4-33.1-16C17.2,11.9,6.6,23,4.7,36.7C2.8,50.4,9.9,63.9,22.2,69.9c11.5,5.6,23.7,3.4,32-2.5
				c-3.3,1.5-6.9,2.3-10.8,2.3C28.8,69.6,17,57.7,17,43z"/>
		</g>
		<g id="XMLID_5_">
			<path id="XMLID_7_" class="st0" d="M82.4,34.1c-1.8-9.9-6.9-18-14.8-24.3c-8.7-6.9-22-10.3-33-8.1C21.3,4.4,11.6,11.8,5.3,23.8
				c-0.2,0.4-0.3,0.7-0.5,1.1c0.3-0.3,0.4-0.7,0.6-1C12.2,11.7,26.1,4.6,40,6.4c8.1,1.1,15.1,4.5,20.8,10.4
				c7.6,8.1,10.6,17.6,9.4,28.4c-0.3,3.7-1.4,7.2-3.1,10.4c-4.3,9.9-16.4,20.9-33.6,19.8c-16.7-1-30.4-14-32.3-30.8
				c0.2,1.7,0.3,3.3,0.7,5c1.7,8.8,5.8,16.4,12.5,22.4c10.5,9.5,22.9,12.8,36.8,9.9c9-1.9,16.6-6.5,22.5-13.6
				C81.8,58.4,84.8,46.9,82.4,34.1z"/>
		</g>
	</g>
	<g id="XMLID_9_">
		<path id="XMLID_11_" class="st0" d="M70.7,50v7.8H42.3c-4.3,0-7.8-0.3-10.5-0.9s-4.8-1.5-6.3-2.8c-1.5-1.3-2.5-2.9-3-4.9
			c-0.5-2-0.8-4.4-0.8-7.2c0-2.7,0.3-5,0.8-7c0.5-2,1.5-3.7,3-5c1.5-1.3,3.6-2.3,6.3-3c2.7-0.6,6.3-1,10.7-1c4.3,0,7.8,0.3,10.4,0.9
			c2.7,0.6,4.8,1.5,6.3,2.7c1.5,1.2,2.5,2.8,3.1,4.6c0.6,1.8,0.8,4,0.8,6.5v3.9H33.5c0,1,0.2,1.9,0.5,2.5c0.3,0.7,0.8,1.2,1.6,1.6
			c0.7,0.4,1.7,0.7,2.8,0.8c1.2,0.2,2.6,0.2,4.4,0.2H70.7z M42.9,33.3c-1.8,0-3.2,0.1-4.5,0.2c-1.2,0.2-2.2,0.4-2.9,0.8
			c-0.7,0.4-1.3,0.9-1.6,1.6c-0.3,0.7-0.5,1.5-0.5,2.6V39h18.2v-0.4c0-1-0.1-1.9-0.4-2.6c-0.3-0.7-0.8-1.2-1.5-1.6
			C49,34,48.1,33.7,47,33.6C45.9,33.4,44.5,33.3,42.9,33.3z"/>
	</g>
</g>
</svg>
