<svg width="24" height="24" viewBox="0 0 24 24" fill="none" xmlns="http://www.w3.org/2000/svg">
<path d="M9.02468 6.58355C9.94537 6.58355 10.5251 6.29029 11.0365 6.03796C11.4798 5.79926 11.8208 5.62876 12.4346 5.62876C13.0484 5.62876 13.3894 5.79926 13.8327 6.03796C14.3442 6.29711 14.9034 6.58355 15.8446 6.58355C16.7857 6.58355 17.3449 6.29029 17.8564 6.03796C18.2997 5.79926 18.6407 5.62876 19.2545 5.62876V4.29889C18.3338 4.29889 17.7541 4.59214 17.2426 4.84448C16.7993 5.06272 16.4379 5.25367 15.8446 5.25367C15.2512 5.25367 14.8898 5.08317 14.4465 4.84448C13.935 4.58532 13.3758 4.29889 12.4346 4.29889C11.4935 4.29889 10.9342 4.59214 10.4228 4.84448C9.97946 5.06271 9.61801 5.25367 9.02468 5.25367C8.41089 5.25367 8.0699 5.08317 7.62661 4.84448C7.11512 4.58532 6.54907 4.29889 5.61475 4.29889L5.61475 5.62876C6.22853 5.62876 6.56953 5.79926 7.01282 6.03796C7.52431 6.29711 8.104 6.58355 9.02468 6.58355Z" fill="#333333"/>
<path d="M9.02468 8.7965C9.94537 8.7965 10.5251 8.50324 11.0365 8.25091C11.4798 8.01221 11.8208 7.84172 12.4346 7.84172C13.0484 7.84172 13.3894 8.01221 13.8327 8.25091C14.3442 8.51006 14.9034 8.7965 15.8446 8.7965C16.7857 8.7965 17.3449 8.50324 17.8564 8.25091C18.2997 8.01221 18.6407 7.84172 19.2545 7.84172V6.51184C18.3338 6.51184 17.7541 6.8051 17.2426 7.05743C16.7993 7.27567 16.4379 7.46662 15.8446 7.46662C15.2512 7.46662 14.8898 7.29613 14.4465 7.05743C13.935 6.79828 13.3758 6.51184 12.4346 6.51184C11.4935 6.51184 10.9342 6.80509 10.4228 7.05743C9.97946 7.27567 9.61801 7.46662 9.02468 7.46662C8.41089 7.46662 8.0699 7.29613 7.62661 7.05743C7.11512 6.79827 6.54907 6.51184 5.61475 6.51184L5.61475 7.84171C6.22853 7.84171 6.56953 8.01221 7.01282 8.25091C7.52431 8.51006 8.104 8.7965 9.02468 8.7965Z" fill="#333333"/>
<path d="M9.8398 9.6441L8.12931 9.6441L3.36133 19.9747L6.93781 19.9747L9.8398 9.6441Z" fill="#333333"/>
<path d="M15.1601 9.6441L18.0621 19.9747L21.6386 19.9747L16.8706 9.6441L15.1601 9.6441Z" fill="#333333"/>
<path d="M10.1106 17.3083L12.4345 19.9747L14.7585 17.3083H13.2156L12.8926 10.5267H14.255L12.5 9.6441L10.7449 10.5267H12.1073L11.7843 17.3083H10.1106Z" fill="#333333"/>
</svg>
